<svg width="79" height="82" viewBox="0 0 79 82" fill="none" xmlns="http://www.w3.org/2000/svg">
<circle cx="39.5" cy="44.5" r="37.5" fill="#F9A828"/>
<path d="M9.85905 0C4.4208 0 0 4.48459 0 9.92284V69.1409C0 74.5792 4.4208 79 9.85905 79H69.1397C74.5779 79 78.9987 74.5792 78.9987 69.1409V9.92284C78.9993 4.48459 74.5786 0 69.1403 0H9.85905ZM9.85905 3.59377H69.1397C72.6382 3.59377 75.405 6.39239 75.405 9.92284V69.1409C75.405 72.6395 72.6382 75.4062 69.1397 75.4062H9.85905C6.36049 75.4062 3.59377 72.6395 3.59377 69.1409V9.92284C3.59377 6.39303 6.36049 3.59377 9.85905 3.59377ZM63.7014 14.407C63.7014 16.8876 65.7049 18.8911 68.1855 18.8911C68.5036 18.8911 68.7897 18.8272 69.0758 18.764V45.8286H67.5175C67.9626 43.7932 68.2175 41.6939 68.2175 39.5314C68.2175 23.6933 55.337 10.8127 39.4987 10.8127C23.6605 10.8127 10.78 23.6932 10.78 39.5314C10.78 55.3695 23.6605 68.2501 39.4987 68.2501C51.8703 68.2501 62.4298 60.3946 66.4688 49.4222H70.8896C71.8118 49.4222 72.6708 48.5632 72.6708 47.6096C73.243 36.7326 72.7027 24.2667 72.6708 14.4063C72.6708 11.9257 70.6673 9.92221 68.1867 9.92221C65.5152 9.89028 63.734 11.7034 63.7026 14.4063L63.7014 14.407ZM39.4994 14.407C53.3973 14.407 64.6246 25.6333 64.6246 39.5322C64.6246 41.6947 64.3704 43.794 63.8295 45.8294H54.9246C54.4156 45.2572 53.7162 44.9072 52.9211 44.9072C51.4266 44.9072 50.2496 46.1155 50.2496 47.6106C50.2496 49.1051 51.426 50.314 52.9211 50.314C53.7162 50.314 54.4156 49.9321 54.9246 49.4237H62.6212C58.8046 58.3924 49.8997 64.6577 39.501 64.6577C25.6031 64.6577 14.3757 53.4313 14.3757 39.5324C14.3757 25.6345 25.6021 14.4072 39.501 14.4072L39.4994 14.407ZM39.4994 29.6409C34.0611 29.6409 29.6084 34.0618 29.6084 39.5C29.6084 44.9383 34.0611 49.3909 39.4994 49.3909C44.9376 49.3909 49.3584 44.9383 49.3584 39.5C49.3584 34.0618 44.9376 29.6409 39.4994 29.6409ZM39.4994 33.2347C42.9979 33.2347 45.7646 36.0014 45.7646 39.5C45.7646 42.9986 42.9979 45.7972 39.4994 45.7972C36.0008 45.7972 33.2022 42.9986 33.2022 39.5C33.2022 36.0014 36.0008 33.2347 39.4994 33.2347Z" fill="black"/>
</svg>
