<svg width="81" height="81" viewBox="0 0 81 81" fill="none" xmlns="http://www.w3.org/2000/svg">
<circle cx="39.5" cy="43.5" r="37.5" fill="#F9A828"/>
<path d="M64.1483 74.5212C63.2544 74.5212 62.5283 73.7951 62.5283 72.9012V55.7987C62.5283 54.9048 63.2544 54.1787 64.1483 54.1787C65.0422 54.1787 65.7683 54.9048 65.7683 55.7987V72.9012C65.7683 73.7951 65.0422 74.5212 64.1483 74.5212Z" fill="black"/>
<path d="M17.174 19.6943C16.5824 19.6943 16.014 19.3703 15.7276 18.8083C15.3226 18.0113 15.6401 17.0357 16.4385 16.6307C24.8336 12.3667 32.5523 6.92219 39.3869 0.445163C40.0363 -0.170287 41.0618 -0.142812 41.6773 0.506636C42.2927 1.15608 42.2653 2.1816 41.6158 2.79703C34.5572 9.48901 26.5809 15.1155 17.9083 19.5206C17.6733 19.637 17.4223 19.6941 17.1757 19.6941L17.174 19.6943Z" fill="black"/>
<path d="M32.7222 19.6943C32.4272 19.6943 32.1292 19.6148 31.8624 19.4463C31.1059 18.9697 30.8773 17.9702 31.3539 17.2124C34.5208 12.1745 37.0804 6.75552 38.965 1.10793C39.247 0.258889 40.1655 -0.199635 41.0145 0.083874C41.8635 0.367383 42.3221 1.28441 42.0385 2.1334C40.0736 8.02685 37.402 13.6787 34.0976 18.938C33.7881 19.4255 33.2616 19.6945 32.722 19.6945L32.7222 19.6943Z" fill="black"/>
<path d="M48.2779 19.6947C47.7384 19.6947 47.2119 19.4257 46.9038 18.9368C43.5987 13.6797 40.9293 8.02634 38.9629 2.13215C38.6794 1.2831 39.1379 0.366053 39.987 0.0826185C40.8403 -0.197983 41.753 0.259083 42.0365 1.10668C43.9205 6.75426 46.4799 12.1726 49.6475 17.2111C50.1241 17.969 49.8956 18.9685 49.1391 19.445C48.8708 19.6135 48.5714 19.6946 48.2777 19.6946L48.2779 19.6947Z" fill="black"/>
<path d="M63.8262 19.6946C63.5803 19.6946 63.3286 19.6382 63.0943 19.5196C54.4207 15.1145 46.4437 9.48858 39.3868 2.79605C38.7374 2.1806 38.7113 1.15508 39.3253 0.505655C39.9393 -0.143787 40.9663 -0.171262 41.6157 0.444183C48.4471 6.92121 56.1683 12.3657 64.5641 16.6297C65.3626 17.0347 65.68 18.0096 65.275 18.8074C64.9879 19.3707 64.4188 19.6947 63.8279 19.6947L63.8262 19.6946Z" fill="black"/>
<path d="M79.38 19.6943C79.2259 19.6943 79.0704 19.6719 78.915 19.6263C65.3005 15.5582 52.1082 9.9758 39.7074 3.03444C38.9263 2.59689 38.6478 1.61043 39.0854 0.829389C39.5229 0.0483472 40.5108 -0.226496 41.2904 0.207422C53.4837 7.03381 66.455 12.5244 79.8426 16.5224C80.6996 16.7784 81.1871 17.6809 80.9311 18.538C80.7213 19.2388 80.0762 19.6944 79.3783 19.6944L79.38 19.6943Z" fill="black"/>
<path d="M1.62018 19.6944C0.922282 19.6944 0.278616 19.2395 0.0681649 18.538C-0.18785 17.681 0.299591 16.7784 1.1566 16.5224C14.5441 12.5224 27.5153 7.03382 39.7088 0.207437C40.4877 -0.2265 41.4763 0.0483301 41.9139 0.829405C42.3514 1.61048 42.073 2.59694 41.2919 3.03445C28.891 9.97803 15.6996 15.5584 2.08427 19.6264C1.92806 19.6734 1.77112 19.6943 1.61853 19.6943L1.62018 19.6944Z" fill="black"/>
<path d="M37.2601 74.5213C36.3662 74.5213 35.6401 73.7952 35.6401 72.9013V27.0878C35.6401 26.1939 36.3662 25.4678 37.2601 25.4678C38.154 25.4678 38.8801 26.1939 38.8801 27.0878V72.9013C38.8801 73.7952 38.154 74.5213 37.2601 74.5213Z" fill="black"/>
<path d="M43.7401 74.5213C42.8462 74.5213 42.1201 73.7952 42.1201 72.9013V27.0878C42.1201 26.1939 42.8462 25.4678 43.7401 25.4678C44.634 25.4678 45.3601 26.1939 45.3601 27.0878V72.9013C45.3601 73.7952 44.634 74.5213 43.7401 74.5213Z" fill="black"/>
<path d="M32.7241 21.6391C31.8302 21.6391 31.1041 20.913 31.1041 20.0191V18.0751C31.1041 17.1812 31.8302 16.4551 32.7241 16.4551C33.618 16.4551 34.3441 17.1812 34.3441 18.0751V20.0191C34.3441 20.913 33.618 21.6391 32.7241 21.6391Z" fill="black"/>
<path d="M48.2761 21.6391C47.3822 21.6391 46.6561 20.913 46.6561 20.0191V18.0751C46.6561 17.1812 47.3822 16.4551 48.2761 16.4551C49.1699 16.4551 49.8961 17.1812 49.8961 18.0751V20.0191C49.8961 20.913 49.1699 21.6391 48.2761 21.6391Z" fill="black"/>
<path d="M63.828 21.6391C62.9341 21.6391 62.208 20.913 62.208 20.0191V18.0751C62.208 17.1812 62.9341 16.4551 63.828 16.4551C64.7219 16.4551 65.448 17.1812 65.448 18.0751V20.0191C65.448 20.913 64.7219 21.6391 63.828 21.6391Z" fill="black"/>
<path d="M56.052 29.4144C50.9584 29.4144 46.6561 25.1121 46.6561 20.0184C46.6561 19.1245 47.3822 18.3984 48.2761 18.3984C49.1699 18.3984 49.8961 19.1245 49.8961 20.0184C49.8961 23.3553 52.7152 26.1744 56.052 26.1744C59.3889 26.1744 62.208 23.3553 62.208 20.0184C62.208 19.1245 62.9341 18.3984 63.828 18.3984C64.7219 18.3984 65.448 19.1245 65.448 20.0184C65.448 25.1113 61.1457 29.4144 56.052 29.4144Z" fill="black"/>
<path d="M40.5001 29.4144C35.4065 29.4144 31.1041 25.1121 31.1041 20.0184C31.1041 19.1245 31.8302 18.3984 32.7241 18.3984C33.618 18.3984 34.3441 19.1245 34.3441 20.0184C34.3441 23.3553 37.1633 26.1744 40.5001 26.1744C43.8369 26.1744 46.6561 23.3553 46.6561 20.0184C46.6561 19.1245 47.3822 18.3984 48.2761 18.3984C49.17 18.3984 49.8961 19.1245 49.8961 20.0184C49.8961 25.1113 45.5937 29.4144 40.5001 29.4144Z" fill="black"/>
<path d="M24.9481 29.4144C19.8545 29.4144 15.5521 25.1121 15.5521 20.0184C15.5521 19.1245 16.2782 18.3984 17.1721 18.3984C18.066 18.3984 18.7921 19.1245 18.7921 20.0184C18.7921 23.3553 21.6113 26.1744 24.9481 26.1744C28.2849 26.1744 31.1041 23.3553 31.1041 20.0184C31.1041 19.1245 31.8302 18.3984 32.7241 18.3984C33.618 18.3984 34.3441 19.1245 34.3441 20.0184C34.3441 25.1113 30.0418 29.4144 24.9481 29.4144Z" fill="black"/>
<path d="M9.39616 29.4144C4.30252 29.4144 0.000183105 25.1121 0.000183105 20.0184C0.000183105 19.1245 0.726293 18.3984 1.62018 18.3984C2.51407 18.3984 3.24018 19.1245 3.24018 20.0184C3.24018 23.3553 6.05934 26.1744 9.39616 26.1744C12.733 26.1744 15.5521 23.3553 15.5521 20.0184C15.5521 19.1245 16.2783 18.3984 17.1721 18.3984C18.066 18.3984 18.7921 19.1245 18.7921 20.0184C18.7921 25.1113 14.4898 29.4144 9.39616 29.4144Z" fill="black"/>
<path d="M1.62018 21.6391C0.726293 21.6391 0.000183105 20.913 0.000183105 20.0191V18.0751C0.000183105 17.1812 0.726293 16.4551 1.62018 16.4551C2.51407 16.4551 3.24018 17.1812 3.24018 18.0751V20.0191C3.24018 20.913 2.51407 21.6391 1.62018 21.6391Z" fill="black"/>
<path d="M71.604 29.4144C66.5104 29.4144 62.208 25.1121 62.208 20.0184C62.208 19.1245 62.9341 18.3984 63.828 18.3984C64.7219 18.3984 65.448 19.1245 65.448 20.0184C65.448 23.3553 68.2672 26.1744 71.604 26.1744C74.9408 26.1744 77.76 23.3553 77.76 20.0184C77.76 19.1245 78.4861 18.3984 79.38 18.3984C80.2739 18.3984 81 19.1245 81 20.0184C81 25.1113 76.6977 29.4144 71.604 29.4144Z" fill="black"/>
<path d="M79.38 21.6391C78.4861 21.6391 77.76 20.913 77.76 20.0191V18.0751C77.76 17.1812 78.4861 16.4551 79.38 16.4551C80.2739 16.4551 81 17.1812 81 18.0751V20.0191C81 20.913 80.2739 21.6391 79.38 21.6391Z" fill="black"/>
<path d="M17.1721 21.6391C16.2782 21.6391 15.5521 20.913 15.5521 20.0191V18.0751C15.5521 17.1812 16.2782 16.4551 17.1721 16.4551C18.066 16.4551 18.7921 17.1812 18.7921 18.0751V20.0191C18.7921 20.913 18.066 21.6391 17.1721 21.6391Z" fill="black"/>
<path d="M79.38 19.6951H1.62018C0.726293 19.6951 0.000183105 18.969 0.000183105 18.0751C0.000183105 17.1812 0.726293 16.4551 1.62018 16.4551H79.38C80.2739 16.4551 81 17.1812 81 18.0751C81 18.969 80.2739 19.6951 79.38 19.6951Z" fill="black"/>
<path d="M21.0601 74.5212C20.1662 74.5212 19.4401 73.7951 19.4401 72.9012V55.7987C19.4401 54.9048 20.1662 54.1787 21.0601 54.1787C21.954 54.1787 22.6801 54.9048 22.6801 55.7987V72.9012C22.6801 73.7951 21.954 74.5212 21.0601 74.5212Z" fill="black"/>
<path d="M30.9782 49.9912C30.5248 49.9912 30.0742 49.8017 29.7538 49.4321C29.1673 48.7567 29.2403 47.7326 29.9158 47.146C30.9218 46.2731 31.6139 45.1276 31.9163 43.8316C32.1202 42.9601 32.9967 42.4191 33.8632 42.6231C34.7347 42.827 35.2757 43.6985 35.0717 44.57C34.6117 46.5335 33.5616 48.2699 32.0393 49.5935C31.7319 49.8618 31.3544 49.9913 30.9783 49.9913L30.9782 49.9912Z" fill="black"/>
<path d="M27.0717 59.539C25.9898 59.539 24.9281 59.1796 24.0696 58.494C22.7946 57.475 21.2086 57.19 19.3492 57.6464L18.7497 57.8004C17.2121 58.2025 15.4771 58.6589 13.5157 57.5603C11.9753 56.6968 10.9107 55.3393 10.5201 53.7375C10.2836 52.7749 10.387 51.6994 10.489 50.6595C10.711 48.3733 10.562 47.9264 10.0016 47.742C9.80556 47.6769 9.77953 47.6675 9.21903 48.1C8.66505 48.526 7.82758 49.1711 6.60464 49.1754H6.58873C4.79227 49.1754 3.01973 47.7529 2.71369 46.0584C2.50469 44.8933 2.84821 43.6913 3.12521 42.7243C3.21272 42.4184 3.29878 42.1233 3.35519 41.8543C3.53961 40.9647 3.7696 39.8618 4.27513 38.8074C4.66204 38.0003 5.62754 37.6589 6.43611 38.0459C7.24322 38.4328 7.58313 39.4004 7.19766 40.2068C6.88668 40.8577 6.72323 41.5744 6.52724 42.5139C6.45781 42.8538 6.35222 43.2284 6.24084 43.6168C6.05642 44.2597 5.82788 45.0603 5.90383 45.4827C5.96386 45.6526 6.38042 45.9347 6.58943 45.9347C6.66754 45.9021 6.98647 45.7293 7.24683 45.5297C7.96643 44.9786 9.16843 44.0572 11.0184 44.6647C14.2258 45.7206 13.9083 49.0098 13.7174 50.9732C13.6429 51.7427 13.5648 52.5397 13.6704 52.9672C13.8468 53.6883 14.356 54.3153 15.1023 54.7333C15.8877 55.1738 16.5748 55.0233 17.9308 54.6668L18.5816 54.4997C21.4282 53.7997 24.0282 54.3066 26.0966 55.9642C26.5081 56.2911 27.0476 56.3873 27.5806 56.2217C28.1122 56.0568 28.5041 55.6728 28.6582 55.1687L28.8578 54.5561C30.2268 50.3506 30.1147 48.9671 28.3537 48.382C27.3593 48.0515 26.0611 48.0775 24.6877 48.1079C22.1283 48.1614 18.9433 48.228 16.9167 45.5759C16.4958 45.0248 16.1212 44.4629 15.7538 43.9074C15.0364 42.827 14.4173 41.894 13.5002 41.1485C12.3728 40.2314 11.0217 39.5755 9.58985 39.2544C8.71694 39.0585 8.16945 38.192 8.36544 37.3184C8.56288 36.4455 9.42784 35.8995 10.3015 36.094C12.2194 36.5265 14.0325 37.4045 15.544 38.636C16.8429 39.6919 17.6616 40.9249 18.452 42.1176C18.7825 42.6152 19.1145 43.1171 19.4905 43.6082C20.451 44.8637 22.0644 44.9266 24.621 44.8687C26.2121 44.8347 27.8531 44.8007 29.3755 45.3063C34.702 47.0753 32.9041 52.5948 31.9386 55.5593L31.7542 56.1313C31.2971 57.6363 30.0951 58.8353 28.5453 59.3163C28.0542 59.4668 27.5603 59.5391 27.0714 59.5391L27.0717 59.539Z" fill="black"/>
<path d="M5.7359 41.1265C5.08139 41.1265 4.4645 40.7265 4.21933 40.0764C3.82879 39.0378 3.53878 37.9544 3.35944 36.8545L3.29652 36.4719C3.15404 35.5889 3.7536 34.7565 4.63591 34.614C5.52691 34.4701 6.35137 35.0726 6.49381 35.9534L6.55529 36.3338C6.69921 37.2198 6.93426 38.0949 7.25029 38.9338C7.56489 39.7713 7.14181 40.7064 6.30577 41.0216C6.11774 41.0925 5.92536 41.1265 5.73588 41.1265L5.7359 41.1265Z" fill="black"/>
<path d="M9.94047 39.2937C9.59838 39.2937 9.25342 39.1852 8.96051 38.9617C7.83808 38.1062 6.44294 37.7033 5.03993 37.8263C4.13736 37.8993 3.36136 37.2463 3.28397 36.3553C3.20442 35.4643 3.86398 34.6767 4.75498 34.5993C6.96947 34.4033 9.16007 35.0383 10.9269 36.3864C11.6378 36.9288 11.7745 37.9449 11.2314 38.6558C10.9102 39.0739 10.4293 39.2937 9.94041 39.2937L9.94047 39.2937Z" fill="black"/>
<path d="M24.3723 63.7702C24.1322 63.7702 23.8878 63.7167 23.6578 63.6031C22.8558 63.2075 22.5252 62.2355 22.9208 61.4342L25.0283 57.1607C25.4253 56.3587 26.3973 56.0332 27.1973 56.4238C27.9993 56.8194 28.3298 57.7914 27.9342 58.5927L25.8267 62.8662C25.5454 63.4397 24.9719 63.7702 24.3723 63.7702L24.3723 63.7702Z" fill="black"/>
<path d="M28.1085 67.5748C27.833 67.5748 27.5545 67.5054 27.2985 67.3579C26.524 66.9109 26.2585 65.9194 26.7069 65.1449L30.2289 59.0518C30.6758 58.2758 31.6659 58.0104 32.4419 58.4602C33.2165 58.9072 33.4819 59.8987 33.0335 60.6732L29.5115 66.7663C29.2121 67.2848 28.6675 67.5748 28.1085 67.5748H28.1085Z" fill="black"/>
<path d="M31.6318 61.4814C31.1038 61.4814 30.5853 61.224 30.2743 60.7474L28.2479 57.6448C27.759 56.8962 27.9695 55.8917 28.718 55.4029C29.4665 54.9118 30.4711 55.1223 30.9599 55.873L32.9863 58.9756C33.4752 59.7241 33.2647 60.7287 32.5162 61.2175C32.2442 61.3961 31.9362 61.4814 31.6317 61.4814L31.6318 61.4814Z" fill="black"/>
<path d="M11.1717 62.9795C10.5627 62.9795 9.97765 62.6345 9.70211 62.0451L7.86805 58.1165C7.52452 57.3796 7.77909 56.5031 8.46252 56.0655L12.1191 53.7259C12.8705 53.2413 13.8736 53.4619 14.356 54.2169C14.8391 54.9705 14.6185 55.9715 13.8649 56.4538L11.4023 58.0283L12.6369 60.6702C13.0144 61.4802 12.6644 62.4457 11.8543 62.8247C11.633 62.9311 11.4002 62.9795 11.1716 62.9795L11.1717 62.9795Z" fill="black"/>
<path d="M16.1002 66.7874H16.0481C15.1542 66.7585 14.4527 66.0114 14.4802 65.1175L14.7506 56.6271C14.7796 55.7332 15.523 55.0201 16.4205 55.0591C17.3144 55.0881 18.0159 55.8352 17.9885 56.729L17.718 65.2195C17.6898 66.096 16.9702 66.7874 16.1001 66.7874H16.1002Z" fill="black"/>
<path d="M59.1865 66.7874H59.1344C58.2406 66.7585 57.539 66.0114 57.5665 65.1175L57.837 56.6271C57.8659 55.7332 58.6036 55.0201 59.5069 55.0591C60.4008 55.0881 61.1023 55.8352 61.0748 56.729L60.8043 65.2195C60.7776 66.096 60.0587 66.7874 59.1865 66.7874H59.1865Z" fill="black"/>
<path d="M54.2599 62.9795C53.6509 62.9795 53.0659 62.6345 52.7903 62.0451L50.9562 58.1165C50.6127 57.3796 50.8673 56.5031 51.5507 56.0655L55.2073 53.7259C55.9587 53.2413 56.9618 53.4619 57.4442 54.2169C57.9273 54.9705 57.7067 55.9715 56.9531 56.4538L54.4905 58.0283L55.7251 60.6702C56.1026 61.4802 55.7526 62.4457 54.9425 62.8247C54.7212 62.9311 54.4877 62.9795 54.2598 62.9795L54.2599 62.9795Z" fill="black"/>
<path d="M74.7218 61.4814C74.1939 61.4814 73.6753 61.224 73.3644 60.7474L71.338 57.6448C70.8491 56.8962 71.0595 55.8917 71.8081 55.4029C72.5566 54.9118 73.5612 55.1223 74.05 55.873L76.0764 58.9756C76.5652 59.7241 76.3548 60.7287 75.6063 61.2175C75.3321 61.3961 75.0262 61.4814 74.7218 61.4814L74.7218 61.4814Z" fill="black"/>
<path d="M71.1967 67.5748C70.9212 67.5748 70.6427 67.5054 70.3867 67.3579C69.6121 66.9109 69.3467 65.9194 69.7951 65.1449L73.3171 59.0518C73.764 58.2758 74.7541 58.0104 75.5301 58.4602C76.3047 58.9072 76.5701 59.8987 76.1217 60.6732L72.5997 66.7663C72.301 67.2848 71.7572 67.5748 71.1967 67.5748H71.1967Z" fill="black"/>
<path d="M67.4605 63.7702C67.2204 63.7702 66.976 63.7167 66.746 63.6031C65.9439 63.2075 65.6134 62.2355 66.009 61.4342L68.1165 57.1607C68.5135 56.3587 69.4855 56.0332 70.2854 56.4238C71.0875 56.8194 71.418 57.7914 71.0224 58.5927L68.9149 62.8662C68.6336 63.4397 68.0586 63.7702 67.4605 63.7702L67.4605 63.7702Z" fill="black"/>
<path d="M53.0287 39.2937C52.6866 39.2937 52.3402 39.1852 52.0473 38.9617C50.9263 38.1062 49.5377 37.7033 48.1282 37.8263C47.2343 37.8993 46.4496 37.2463 46.3722 36.3553C46.2926 35.4643 46.9522 34.6767 47.8432 34.5993C50.0627 34.4033 52.2483 35.0383 54.0151 36.3864C54.726 36.9288 54.8627 37.9463 54.3196 38.6573C53.9992 39.0753 53.5161 39.2938 53.0286 39.2938L53.0287 39.2937Z" fill="black"/>
<path d="M48.8241 41.1265C48.1696 41.1265 47.5527 40.7265 47.3075 40.0764C46.9155 39.0328 46.6255 37.9494 46.4476 36.8545L46.3847 36.4719C46.2422 35.5889 46.8418 34.7565 47.7241 34.614C48.61 34.4701 49.4396 35.0726 49.582 35.9534L49.6435 36.3338C49.7874 37.2169 50.021 38.0912 50.3385 38.9338C50.6531 39.7713 50.23 40.7064 49.394 41.0216C49.2067 41.0925 49.0136 41.1265 48.8241 41.1265L48.8241 41.1265Z" fill="black"/>
<path d="M70.1599 59.539C69.078 59.539 68.0163 59.1796 67.1578 58.4926C65.8878 57.4772 64.2983 57.1915 62.4374 57.645L61.8299 57.8004C60.2989 58.2026 58.5638 58.656 56.6039 57.5589C55.0635 56.6954 53.999 55.3379 53.6068 53.7338C53.3718 52.7712 53.4759 51.6973 53.5779 50.6588C53.7999 48.3714 53.6509 47.9243 53.0905 47.7378C52.8959 47.6727 52.8684 47.6633 52.3079 48.0958C51.754 48.5218 50.915 49.1669 49.6913 49.1712C47.9252 49.2363 46.1092 47.7537 45.8018 46.0557C45.5914 44.8891 45.9349 43.6871 46.2119 42.7201C46.2994 42.4142 46.3855 42.1191 46.4419 41.8501C46.6263 40.962 46.8563 39.8606 47.364 38.8032C47.7509 37.9961 48.7186 37.6548 49.525 38.0417C50.3321 38.4286 50.672 39.3962 50.2865 40.2027C49.9741 40.8535 49.8034 41.6006 49.6139 42.5097C49.5445 42.8496 49.4389 43.2243 49.3275 43.6126C49.1431 44.2556 48.9146 45.0561 48.9905 45.4785C49.0491 45.6484 49.4671 45.9305 49.6761 45.9305C49.8121 45.9124 50.0746 45.7265 50.3357 45.5255C51.0531 44.9729 52.2573 44.0494 54.1072 44.6605C57.3146 45.7164 56.9958 49.0056 56.8062 50.9705C56.7317 51.74 56.6536 52.537 56.7592 52.9645C56.9342 53.6841 57.4427 54.3104 58.1912 54.7284C58.9766 55.171 59.6622 55.0199 61.0116 54.6633L61.6727 54.4948C64.5192 53.7969 67.1177 54.3039 69.1861 55.9593C69.5991 56.2862 70.1386 56.3802 70.6701 56.2182C71.2017 56.0534 71.5937 55.6693 71.7477 55.1638L71.9452 54.5534C73.3156 50.3464 73.2021 48.9616 71.4433 48.378C70.4792 48.0569 69.1882 48.088 67.8163 48.1205C65.2569 48.1791 62.0747 48.2565 60.0794 45.6681C59.6404 45.0997 59.2535 44.5146 58.8695 43.9331C58.1954 42.9127 57.559 41.9486 56.6759 41.2145C55.5238 40.2584 54.1439 39.5801 52.6809 39.2511C51.808 39.0551 51.2605 38.1887 51.4565 37.315C51.6525 36.4421 52.5239 35.8975 53.3925 36.0906C55.351 36.5296 57.2046 37.4402 58.7465 38.7217C60.0005 39.7631 60.8025 40.9767 61.5749 42.1498C61.9148 42.6647 62.2569 43.1869 62.6474 43.6917C63.5738 44.8937 65.1894 44.9378 67.7425 44.8843C69.3271 44.8452 70.9696 44.8083 72.4666 45.3037C77.7945 47.0727 75.9953 52.5937 75.0297 55.5582L74.8453 56.1281C74.3882 57.6345 73.1848 58.8336 71.6342 59.3146C71.1432 59.4672 70.6492 59.5395 70.1596 59.5395L70.1599 59.539Z" fill="black"/>
<path d="M74.0645 49.9912C73.6111 49.9912 73.1605 49.8017 72.8401 49.4321C72.2536 48.7567 72.3267 47.7326 73.0021 47.146C74.0081 46.2731 74.7002 45.1276 75.0046 43.8316C75.2086 42.9601 76.0851 42.4191 76.9516 42.6231C77.8231 42.827 78.364 43.6985 78.1601 44.57C77.7001 46.5335 76.65 48.2714 75.1254 49.5935C74.8188 49.8618 74.4398 49.9913 74.0644 49.9913L74.0645 49.9912Z" fill="black"/>
<path d="M72.9 74.5212H8.10016C7.20627 74.5212 6.48016 73.7951 6.48016 72.9012C6.48016 72.0074 7.20627 71.2812 8.10016 71.2812H72.9C73.7939 71.2812 74.52 72.0074 74.52 72.9012C74.52 73.7951 73.7939 74.5212 72.9 74.5212Z" fill="black"/>
<path d="M8.10016 81.0012C7.20627 81.0012 6.48016 80.2751 6.48016 79.3812V72.9012C6.48016 72.0074 7.20627 71.2812 8.10016 71.2812C8.99405 71.2812 9.72016 72.0074 9.72016 72.9012V79.3812C9.72016 80.2751 8.99405 81.0012 8.10016 81.0012Z" fill="black"/>
<path d="M72.9 81.0007H8.10016C7.20627 81.0007 6.48016 80.2746 6.48016 79.3807C6.48016 78.4869 7.20627 77.7607 8.10016 77.7607H72.9C73.7939 77.7607 74.52 78.4869 74.52 79.3807C74.52 80.2746 73.7939 81.0007 72.9 81.0007Z" fill="black"/>
<path d="M72.9 81.0012C72.0061 81.0012 71.28 80.2751 71.28 79.3812V72.9012C71.28 72.0074 72.0061 71.2812 72.9 71.2812C73.7939 71.2812 74.52 72.0074 74.52 72.9012V79.3812C74.52 80.2751 73.7939 81.0012 72.9 81.0012Z" fill="black"/>
</svg>
