<svg width="94" height="79" viewBox="0 0 94 79" fill="none" xmlns="http://www.w3.org/2000/svg">
<circle cx="45.5" cy="41.5" r="37.5" fill="#F9A828"/>
<path d="M17.0639 79C16.9792 79 16.8953 78.9927 16.8069 78.9825C16.7617 78.9752 16.7194 78.9686 16.677 78.9577C16.5544 78.9861 16.4245 79 16.2909 79H9.14507H9.11004H1.71457C0.769331 79 0 78.2336 0 77.2854V7.29774C0 3.2745 3.32402 0 7.41303 0H85.6019C89.6879 0 93.015 3.27431 93.015 7.29774V77.2854C93.015 78.2482 92.2033 79.0277 91.2478 78.9963H83.9049H83.8698H76.724C76.5904 78.9963 76.4605 78.9825 76.3379 78.954C76.2956 78.965 76.2503 78.9715 76.208 78.9788C75.27 79.119 74.4022 78.473 74.2613 77.538C73.9766 75.63 74.0051 73.7468 74.2759 71.8812H18.751C19.0182 73.744 19.0495 75.63 18.7649 77.538C18.6386 78.3883 17.908 78.9963 17.0715 78.9963L17.0639 79ZM10.94 75.5738H15.5107C15.8093 69.2673 12.1385 62.785 8.57585 56.4993C8.00651 55.4978 7.44084 54.4964 6.8934 53.5023C6.72114 53.1899 6.654 52.8417 6.68902 52.5008C6.66128 52.5746 6.63281 52.6519 6.60508 52.7256C8.81168 59.7285 11.2072 67.5532 10.9437 75.5746L10.94 75.5738ZM3.42548 75.5738H7.51151C7.77135 68.1921 5.52988 60.7434 3.42548 54.0496V75.5738ZM85.4991 75.5738H89.5852V54.0496C87.4772 60.7428 85.2357 68.1918 85.4991 75.5738ZM77.5037 75.5738H82.0744C81.8138 67.5564 84.2065 59.728 86.4166 52.7248C86.3882 52.651 86.3604 52.5737 86.332 52.5C86.367 52.8408 86.3006 53.189 86.1283 53.5014C85.5801 54.4992 85.0108 55.497 84.4451 56.4984C80.8832 62.7845 77.2087 69.2668 77.5103 75.5729L77.5037 75.5738ZM18.2585 68.4593H74.7606C74.8482 68.4593 74.9329 68.4659 75.0168 68.4769C76.3657 63.8039 78.9408 59.2573 81.4634 54.8091C81.8532 54.1237 82.24 53.4384 82.6225 52.7529C71.5708 36.046 67.9732 25.0979 66.4271 15.8784C59.8755 20.7447 53.4887 23.0249 46.5081 23.0249C39.8965 23.0249 33.5199 20.7199 26.6021 15.8046C25.0634 25.0417 21.4803 36.0039 10.3959 52.752C10.7791 53.4374 11.1689 54.1228 11.5557 54.8082C14.0775 59.2599 16.6526 63.803 17.9986 68.4759C18.0825 68.4613 18.1672 68.4584 18.2548 68.4584L18.2585 68.4593ZM15.7118 3.42899C15.6235 5.10853 15.5636 6.76684 15.5045 8.50929C15.1351 19.0434 14.7205 30.9509 6.9987 51.681C22.2387 28.8918 23.3101 17.1048 24.3393 5.70642C24.3889 5.1692 24.4378 4.63126 24.4875 4.0904C24.4875 4.03054 24.4941 3.96704 24.505 3.90792C24.5189 3.74953 24.5327 3.59114 24.5503 3.42982L15.7118 3.42899ZM68.5347 4.08958C68.5836 4.62679 68.6332 5.16838 68.6821 5.7056C69.7149 17.1039 70.7828 28.8928 86.0263 51.6802C78.3046 30.9501 77.8864 19.0435 77.5177 8.50847C77.4579 6.76617 77.398 5.10784 77.3104 3.43191H68.4711C68.4857 3.58957 68.5032 3.7516 68.5171 3.90928C68.5273 3.96913 68.5309 4.02898 68.5346 4.09248L68.5347 4.08958ZM80.7395 3.42899C80.8234 5.0735 80.8796 6.68948 80.9395 8.38653C81.3052 18.8184 81.7161 30.632 89.5927 51.4349V7.30088C89.5927 5.16808 87.8044 3.42862 85.6052 3.42862L80.7395 3.42899ZM7.4164 3.42899C5.21708 3.42899 3.42885 5.16474 3.42885 7.30125V51.4353C11.3017 30.6324 11.7164 18.8229 12.0783 8.39064C12.1382 6.69359 12.1944 5.07391 12.2783 3.42937L7.4164 3.42899ZM27.1505 11.9566C34.0366 17.1668 40.2014 19.5982 46.5071 19.5982C53.2275 19.5982 59.393 17.1741 65.8675 11.9779C65.6704 10.3546 65.5164 8.76996 65.3719 7.19549C58.8238 11.3802 52.7705 13.3407 46.5067 13.3407C39.8988 13.3407 33.8383 11.4013 27.634 7.27659C27.4939 8.81525 27.3428 10.3648 27.1493 11.9531L27.1505 11.9566ZM28.0957 3.42899C34.2364 7.8523 40.1101 9.91857 46.5078 9.91857C52.5048 9.91857 58.3609 7.85211 64.8673 3.42899H28.0957Z" fill="black"/>
</svg>
