<svg width="75" height="87" viewBox="0 0 75 87" fill="none" xmlns="http://www.w3.org/2000/svg">
<circle cx="37.5" cy="48.5" r="37.5" fill="#F9A828"/>
<path d="M38.608 56.9961H41.3906V59.7787H38.608V56.9961Z" fill="black"/>
<path d="M49.9101 46.572L46.9561 46.0795V40.9956L48.4437 39.8801C50.7313 38.1658 52.4685 35.8825 53.5208 33.2435C56.114 32.7702 58.0866 30.5062 58.0866 27.7796V27.2038L54.4885 23.6056L62.2605 15.8336C63.158 14.9361 63.6518 13.7441 63.6518 12.4752C63.6518 11.2064 63.158 10.0126 62.2605 9.11688L54.4885 1.34483C52.6954 -0.448277 49.5649 -0.448277 47.7711 1.34483L39.9997 9.11688L37.7929 6.91004H37.2171C34.6307 6.91004 32.4711 8.68947 31.8494 11.0839H19.1302C16.8289 11.0839 14.9563 12.9566 14.9563 15.2578C14.9563 17.5591 16.8289 19.4317 19.1302 19.4317H20.7773C20.6214 19.8684 20.5214 20.3336 20.5214 20.823C20.5214 23.1243 22.394 24.997 24.6953 24.997H25.9847C25.7649 26.9516 25.1071 28.8274 24.0047 30.4801L22.6637 32.4918L26.0859 34.2031V39.2838C26.0866 42.1472 28.4146 44.475 31.2748 44.475C31.617 44.475 31.9592 44.4415 32.2915 44.375L33.0431 44.2247V46.0793L30.0891 46.5719C17.2891 48.7048 8 59.6706 8 72.6457V76.6997C8 80.4115 11.0192 83.4307 14.731 83.4307C16.0627 83.4307 17.3534 83.04 18.4651 82.2997L19.1303 81.8556V86.2133H20.5216C22.6588 86.2133 23.7757 85.2561 24.672 84.4866C25.4136 83.8506 25.9031 83.4307 27.0105 83.4307C28.118 83.4307 28.608 83.8506 29.349 84.4866C30.2453 85.2562 31.3627 86.2133 33.4981 86.2133C35.6353 86.2133 36.7522 85.2561 37.6485 84.4866C38.3901 83.8506 38.8802 83.4307 39.9876 83.4307C41.0963 83.4307 41.5851 83.8506 42.3293 84.4866C43.2249 85.2562 44.3423 86.2133 46.4808 86.2133C48.6205 86.2133 49.7379 85.2561 50.6354 84.4877C51.3783 83.8505 51.8696 83.4306 52.9795 83.4306C54.0913 83.4306 54.5807 83.8505 55.3255 84.4877C56.2224 85.2573 57.3398 86.2133 59.4782 86.2133H60.8695V81.8556L61.536 82.3009C62.6459 83.04 63.9373 83.4307 65.269 83.4307C68.9808 83.4307 72 80.4115 72 76.6997V72.6457C72 59.67 62.7106 48.7042 49.9109 46.5719L49.9101 46.572ZM49.4536 49.3155C49.8139 49.3751 50.1617 49.4658 50.5163 49.5422L48.6256 57.1093C48.0244 57.2317 47.471 57.4708 46.9573 57.7702V48.8994L49.4536 49.3155ZM46.9561 62.5621C46.9561 61.0274 48.2039 59.7795 49.7387 59.7795H52.5213C54.0561 59.7795 55.3039 61.0274 55.3039 62.5621H46.9561ZM30.2605 59.7795C31.7953 59.7795 33.0431 61.0274 33.0431 62.5621H24.6953C24.6953 61.0274 25.9431 59.7795 27.4779 59.7795H30.2605ZM44.1735 52.823L42.3176 51.4317L44.1735 50.0404V52.823ZM35.8257 50.0404L37.6816 51.4317L35.8257 52.823V50.0404ZM35.8257 56.3013L39.9996 53.1708L44.1735 56.3013V62.5621H35.8257V56.3013ZM46.9561 37.4957V33.9199L47.7002 33.1758C48.417 32.4591 48.94 31.6063 49.2834 30.6826L50.8791 32.2783C50.0437 34.3348 48.7132 36.1254 46.9561 37.4956L46.9561 37.4957ZM49.7387 3.311C50.4828 2.56938 51.7772 2.56938 52.5213 3.311L60.2934 11.083C60.6648 11.4557 60.8691 11.9483 60.8691 12.4743C60.8691 13.0004 60.6648 13.493 60.2934 13.8657L56.6952 17.4638L46.1406 6.90915L49.7387 3.311ZM44.1735 8.87621L54.7281 19.4309L52.5213 21.6377L41.9667 11.083L44.1735 8.87621ZM36.6909 9.74204L55.2532 28.3044C55.0402 29.4187 54.1613 30.2982 53.0463 30.5112L34.484 11.9473C34.6964 10.833 35.5759 9.95352 36.6902 9.74109L36.6909 9.74204ZM23.304 20.8222C23.304 20.0545 23.9276 19.4309 24.6953 19.4309H31.6518V16.6483H19.1301C18.3624 16.6483 17.7388 16.0247 17.7388 15.257C17.7388 14.4893 18.3624 13.8657 19.1301 13.8657H32.4673L40.8151 22.2135H24.6951C23.9274 22.2135 23.3038 21.5899 23.3038 20.8222H23.304ZM38.881 43.0544L38.3344 40.3259L31.7468 41.6433C30.3008 41.9414 28.8691 40.7712 28.8691 39.2855V38.9085H31.6517C34.7207 38.9085 37.2169 36.4123 37.2169 33.3433H34.4343C34.4343 34.8781 33.1865 36.1259 31.6517 36.1259H28.8691V32.4837L26.7114 31.4055C27.8841 29.4478 28.5673 27.2608 28.7748 24.9974H43.5966L46.9468 28.3476C46.9232 29.4284 46.499 30.4427 45.7319 31.2097L44.1735 32.7675V46.5606L39.9996 49.6911L35.8257 46.5606V43.6669L38.881 43.0544ZM30.5456 49.314L33.0431 48.8978V57.7686C32.5294 57.4692 31.976 57.2301 31.3748 57.1077L29.4841 49.5407C29.8375 49.4655 30.1853 49.3754 30.5456 49.3139L30.5456 49.314ZM16.922 79.9846C16.2698 80.4182 15.5114 80.648 14.7307 80.648C12.5538 80.648 10.7823 78.8765 10.7823 76.6995V72.6455C10.7823 62.3474 17.3282 53.4774 26.7973 50.2686L28.4793 56.9954H27.4775C24.4085 56.9954 21.9122 59.4916 21.9122 62.5606C20.3775 62.5606 19.1296 63.8084 19.1296 65.3432V66.0655L12.6948 71.2134L14.434 73.3879L19.1296 69.6314V78.5133L16.922 79.9846ZM58.087 83.0964C57.7671 82.9144 57.4777 82.6665 57.1342 82.3728C56.2367 81.6051 55.1193 80.6479 52.9795 80.6479C50.8411 80.6479 49.7236 81.605 48.8268 82.3734C48.0833 83.0107 47.5926 83.4305 46.4808 83.4305C45.3914 83.4305 44.8963 83.0212 44.174 82.4026V70.9089H41.3913V80.805C40.9764 80.7063 40.5137 80.6479 39.9876 80.6479C37.8504 80.6479 36.7336 81.605 35.8373 82.3745C35.0969 83.0106 34.6062 83.4305 33.4981 83.4305C32.3919 83.4305 31.9025 83.0106 31.1609 82.3745C30.8895 82.1423 30.5932 81.8944 30.2609 81.6596V73.6914H27.4783V80.6746C27.3255 80.6634 27.1764 80.6479 27.0106 80.6479C24.8734 80.6479 23.7565 81.605 22.8602 82.3745C22.5205 82.6665 22.2329 82.913 21.913 83.095V65.3436H58.0868L58.087 83.0964ZM69.2174 76.6996C69.2174 78.8765 67.4459 80.648 65.269 80.648C64.487 80.648 63.7305 80.4182 63.079 79.9846L60.8696 78.5126V69.6307L65.5652 73.3872L67.3044 71.2126L60.8696 66.0661V65.3437C60.8696 63.809 59.6218 62.5611 58.087 62.5611C58.087 59.4922 55.5908 56.9959 52.5218 56.9959H51.5199L53.2006 50.2692C62.6713 53.4773 69.2173 62.3468 69.2173 72.6461L69.2174 76.6996Z" fill="black"/>
<path d="M34.4341 29.1706C34.4341 29.9389 33.8111 30.5619 33.0428 30.5619C32.2745 30.5619 31.6515 29.9389 31.6515 29.1706C31.6515 28.4023 32.2745 27.7793 33.0428 27.7793C33.8111 27.7793 34.4341 28.4023 34.4341 29.1706Z" fill="black"/>
<path d="M27.4776 68.127H30.2602V70.9096H27.4776V68.127Z" fill="black"/>
</svg>
