<svg width="75" height="76" viewBox="0 0 75 76" fill="none" xmlns="http://www.w3.org/2000/svg">
<g filter="url(#filter0_d_1688_530)">
<path d="M37.3413 69.3441C55.7178 69.3441 70.615 54.3609 70.615 35.8781C70.615 17.3954 55.7178 2.41211 37.3413 2.41211C18.9648 2.41211 4.06763 17.3954 4.06763 35.8781C4.06763 54.3609 18.9648 69.3441 37.3413 69.3441Z" fill="url(#paint0_linear_1688_530)"/>
</g>
<path d="M37.3413 63.6406C52.5861 63.6406 64.9445 51.2108 64.9445 35.8779C64.9445 20.545 52.5861 8.11523 37.3413 8.11523C22.0966 8.11523 9.73822 20.545 9.73822 35.8779C9.73822 51.2108 22.0966 63.6406 37.3413 63.6406Z" fill="url(#paint1_linear_1688_530)"/>
<path d="M22.0004 48.5001H25.0004C25.3981 48.5001 25.7798 48.3421 26.0611 48.0608C26.3423 47.7796 26.5004 47.3979 26.5004 47.0001V33.5002C26.5004 33.1024 26.3423 32.7207 26.0611 32.4395C25.7798 32.1582 25.3981 32.0002 25.0004 32.0002H23.5004V30.5002C23.5004 25.6771 26.0735 21.22 30.2503 18.8089C34.4271 16.3971 39.5734 16.3971 43.7502 18.8089C47.927 21.2202 50.5001 25.677 50.5001 30.5002V32.0002H49.0001C48.6023 32.0002 48.2206 32.1582 47.9394 32.4395C47.6581 32.7207 47.5001 33.1024 47.5001 33.5002V47.0001C47.5001 47.3979 47.6581 47.7796 47.9394 48.0608C48.2206 48.3421 48.6023 48.5001 49.0001 48.5001H50.5001V49.2501C50.4994 49.6479 50.3414 50.0289 50.0601 50.3101C49.7789 50.5913 49.3979 50.7494 49.0001 50.7501H45.8937C45.7283 50.1075 45.3546 49.5383 44.831 49.1312C44.3074 48.724 43.6635 48.5021 43.0003 48.5H38.5003C37.7048 48.5007 36.9424 48.8171 36.38 49.3796C35.8175 49.9422 35.501 50.7045 35.5004 51.5V53C35.501 53.7955 35.8174 54.5579 36.38 55.1204C36.9425 55.6829 37.7048 55.9993 38.5003 56H43.0003C43.6635 55.998 44.3074 55.776 44.831 55.3689C45.3546 54.9617 45.7284 54.3925 45.8937 53.75H49.0001C50.1931 53.7486 51.3372 53.2742 52.1805 52.4304C53.0242 51.587 53.4987 50.4429 53.5001 49.25V48.2871C54.7847 47.9563 55.9234 47.209 56.7377 46.1617C57.552 45.1143 57.996 43.8267 58 42.5001V38.0001C57.996 36.6735 57.552 35.3858 56.7377 34.3385C55.9234 33.2912 54.7847 32.5438 53.5001 32.213V30.5001C53.5001 26.124 51.7617 21.9271 48.6673 18.8328C45.5729 15.7384 41.3763 14 37 14C32.6237 14 28.427 15.7384 25.3327 18.8328C22.2383 21.9272 20.4999 26.1238 20.4999 30.5001V32.213C19.2153 32.5439 18.0766 33.2912 17.2623 34.3385C16.448 35.3858 16.004 36.6735 16 38.0001V42.5001C16.0017 44.0908 16.6345 45.6159 17.7594 46.7406C18.8841 47.8656 20.4097 48.4985 22.0004 48.5001Z" fill="white"/>
<defs>
<filter id="filter0_d_1688_530" x="0.067627" y="0.412109" width="74.5474" height="74.9316" filterUnits="userSpaceOnUse" color-interpolation-filters="sRGB">
<feFlood flood-opacity="0" result="BackgroundImageFix"/>
<feColorMatrix in="SourceAlpha" type="matrix" values="0 0 0 0 0 0 0 0 0 0 0 0 0 0 0 0 0 0 127 0" result="hardAlpha"/>
<feOffset dy="2"/>
<feGaussianBlur stdDeviation="2"/>
<feComposite in2="hardAlpha" operator="out"/>
<feColorMatrix type="matrix" values="0 0 0 0 0 0 0 0 0 0 0 0 0 0 0 0 0 0 0.25 0"/>
<feBlend mode="normal" in2="BackgroundImageFix" result="effect1_dropShadow_1688_530"/>
<feBlend mode="normal" in="SourceGraphic" in2="effect1_dropShadow_1688_530" result="shape"/>
</filter>
<linearGradient id="paint0_linear_1688_530" x1="4.06763" y1="35.8781" x2="70.6342" y2="35.8781" gradientUnits="userSpaceOnUse">
<stop stop-color="#D17307"/>
<stop offset="1" stop-color="#EE971A"/>
</linearGradient>
<linearGradient id="paint1_linear_1688_530" x1="9.75744" y1="35.8779" x2="64.9445" y2="35.8779" gradientUnits="userSpaceOnUse">
<stop stop-color="#EE971A"/>
<stop offset="1" stop-color="#D17307"/>
</linearGradient>
</defs>
</svg>
