<svg width="75" height="82" viewBox="0 0 75 82" fill="none" xmlns="http://www.w3.org/2000/svg">
<circle cx="37.5" cy="43.5" r="37.5" fill="#F9A828"/>
<path d="M36.4167 49.959C34.2678 49.959 32.2075 50.8125 30.6878 52.3316C29.1688 53.8512 28.3152 55.9115 28.3152 58.0605C28.3152 60.2094 29.1688 62.2697 30.6878 63.7894C32.2075 65.3084 34.2678 66.1619 36.4167 66.1619C38.5657 66.1619 40.626 65.3084 42.1456 63.7894C43.6647 62.2697 44.5182 60.2094 44.5182 58.0605C44.5158 55.9127 43.6616 53.8529 42.1432 52.334C40.6241 50.8156 38.5645 49.9615 36.4167 49.959ZM36.4167 63.4615C34.9845 63.4615 33.6107 62.8924 32.5975 61.8797C31.5848 60.8665 31.0157 59.4927 31.0157 58.0605C31.0157 56.6283 31.5848 55.2544 32.5975 54.2412C33.6107 53.2285 34.9845 52.6595 36.4167 52.6595C37.8489 52.6595 39.2228 53.2285 40.236 54.2412C41.2487 55.2545 41.8177 56.6283 41.8177 58.0605C41.8177 59.4927 41.2487 60.8665 40.236 61.8797C39.2227 62.8924 37.8489 63.4615 36.4167 63.4615Z" fill="black"/>
<path d="M73.1712 66.1002L72.9145 49.8973C72.8903 48.8364 72.4539 47.8273 71.6974 47.0835C70.9409 46.3397 69.9247 45.9195 68.8637 45.9129H42.2631C38.5735 44.1124 34.2599 44.1124 30.5703 45.9129H4.05142C2.9658 45.9099 1.92421 46.3445 1.1622 47.1185C0.40028 47.8919 -0.0186514 48.9395 0.000637813 50.0258L0.257432 66.2164C0.271296 67.2809 0.704696 68.2978 1.46241 69.0459C2.22072 69.7933 3.24304 70.2129 4.30811 70.2129H10.7621V72.9134H8.06164C7.316 72.9134 6.7114 73.518 6.7114 74.2636V79.6646C6.7114 80.0227 6.85365 80.3663 7.10682 80.6194C7.36 80.8726 7.70359 81.0149 8.06164 81.0149H16.1631C16.5212 81.0149 16.8648 80.8726 17.1179 80.6194C17.3711 80.3662 17.5134 80.0227 17.5134 79.6646V74.2636C17.5134 73.9056 17.3711 73.562 17.1179 73.3088C16.8648 73.0556 16.5212 72.9134 16.1631 72.9134H13.4626V70.2129H30.5699C34.2595 72.0134 38.5731 72.0134 42.2627 70.2129H59.37V72.9134H56.6695C55.9238 72.9134 55.3192 73.518 55.3192 74.2636V79.6646C55.3192 80.0227 55.4615 80.3663 55.7146 80.6194C55.9678 80.8726 56.3114 81.0149 56.6695 81.0149H64.7709C65.129 81.0149 65.4726 80.8726 65.7258 80.6194C65.9789 80.3662 66.1212 80.0227 66.1212 79.6646V74.2636C66.1212 73.9056 65.9789 73.562 65.7258 73.3088C65.4726 73.0556 65.129 72.9134 64.7709 72.9134H62.0704V70.2129H69.1189C70.2033 70.2105 71.2413 69.774 72.0027 69.0019C72.7634 68.2291 73.1836 67.1845 73.1697 66.1L73.1712 66.1002ZM14.8128 75.614V78.3145H9.4118V75.614H14.8128ZM4.30802 67.5125C3.57021 67.5125 2.96862 66.9206 2.95777 66.1828L2.70098 49.9798C2.69314 49.6205 2.83058 49.2733 3.08195 49.0165C3.33692 48.7555 3.68655 48.6085 4.05122 48.6091H26.7909C24.3068 51.1281 22.9144 54.523 22.9144 58.0608C22.9144 61.5986 24.3068 64.9935 26.7909 67.5125H4.30802ZM36.4161 68.8628C33.5511 68.8628 30.8036 67.7247 28.7782 65.6987C26.7522 63.6733 25.6141 60.9258 25.6141 58.0608C25.6141 55.1958 26.7522 52.4482 28.7782 50.4229C30.8036 48.3969 33.5511 47.2588 36.4161 47.2588C39.2811 47.2588 42.0287 48.3969 44.054 50.4229C46.08 52.4482 47.2181 55.1958 47.2181 58.0608C47.2151 60.9247 46.0758 63.6704 44.0505 65.6952C42.0257 67.7205 39.28 68.8598 36.4161 68.8628ZM63.4211 75.614V78.3145H58.0201V75.614H63.4211ZM70.0734 67.1074C69.8226 67.3654 69.479 67.5113 69.1192 67.5125H46.0415C48.5257 64.9935 49.918 61.5986 49.918 58.0608C49.918 54.523 48.5256 51.1281 46.0415 48.6091H68.8615C69.5975 48.6139 70.1954 49.2034 70.2117 49.9388L70.4685 66.1341C70.4721 66.4982 70.3305 66.849 70.0737 67.1076L70.0734 67.1074Z" fill="black"/>
<path d="M8.06152 51.3096H18.8635V54.0101H8.06152V51.3096Z" fill="black"/>
<path d="M8.06152 56.7109H18.8635V59.4114H8.06152V56.7109Z" fill="black"/>
<path d="M8.06152 62.1113H18.8635V64.8118H8.06152V62.1113Z" fill="black"/>
<path d="M53.9699 51.3096H64.7719V54.0101H53.9699V51.3096Z" fill="black"/>
<path d="M53.9699 56.7109H64.7719V59.4114H53.9699V56.7109Z" fill="black"/>
<path d="M53.9699 62.1113H64.7719V64.8118H53.9699V62.1113Z" fill="black"/>
<path d="M45.7713 10.3296C45.7465 10.2572 45.7158 10.1873 45.679 10.1204C45.6525 10.0788 45.623 10.0396 45.5916 10.0016C45.5506 9.94498 45.5054 9.89193 45.4566 9.84189C45.4174 9.80693 45.3764 9.77438 45.3336 9.74364C45.2987 9.71109 45.2613 9.68095 45.2227 9.65322C45.2052 9.64237 45.1847 9.63815 45.1661 9.6273C45.1474 9.61645 45.1365 9.60319 45.1172 9.59354L37.0157 5.5428H37.0164C36.636 5.35292 36.1887 5.35292 35.809 5.5428L27.7075 9.59354C27.69 9.60319 27.6761 9.61766 27.6587 9.6273C27.6412 9.63695 27.6195 9.64237 27.602 9.65322C27.5604 9.67914 27.5291 9.7141 27.4911 9.74243H27.4917C27.4489 9.77378 27.4079 9.80754 27.3687 9.8437C27.3199 9.89253 27.2747 9.94497 27.2337 9.99982C27.2042 10.0402 27.1716 10.077 27.1457 10.1198V10.1204C27.1095 10.1867 27.0788 10.2566 27.0541 10.3283C27.036 10.3663 27.0203 10.4055 27.0064 10.4459C26.9769 10.5622 26.963 10.6822 26.9648 10.8021V20.2539C26.9648 20.7656 27.2536 21.2334 27.7117 21.4625L35.8132 25.5132C35.8319 25.5228 35.8548 25.5132 35.8753 25.5265C36.2152 25.6965 36.6155 25.6965 36.9555 25.5265C36.976 25.5186 36.9989 25.5265 37.0176 25.5132L45.119 21.4625C45.5778 21.2346 45.8683 20.7662 45.8683 20.2539V10.8021C45.8677 10.681 45.8508 10.561 45.8183 10.4441C45.8044 10.4055 45.7887 10.3669 45.7713 10.3296V10.3296ZM35.0663 22.1201L29.6654 19.4196V12.9865L35.0663 15.687V22.1201ZM36.4166 13.3435L31.3344 10.8021L36.4166 8.26067L41.4988 10.8021L36.4166 13.3435ZM43.1678 19.4196L37.7668 22.1201V15.687L43.1678 12.9865V19.4196Z" fill="black"/>
<path d="M36.4167 0.000102433C32.4021 -0.00713103 28.528 1.47874 25.5484 4.16905C22.5687 6.85997 20.696 10.5623 20.2951 14.5568C19.8936 18.5516 20.9925 22.5522 23.3772 25.782L29.7547 42.3429V42.3423C30.0223 43.0391 30.8041 43.3863 31.5003 43.1187C31.8348 42.9903 32.1043 42.7341 32.2501 42.4068C32.396 42.0795 32.4051 41.7076 32.2767 41.373L27.8763 29.9472C30.0481 31.3059 32.5135 32.125 35.0664 32.3372V40.5073C35.0664 41.253 35.671 41.8576 36.4166 41.8576C37.1623 41.8576 37.7669 41.253 37.7669 40.5073V32.3372C40.3197 32.125 42.7851 31.3058 44.957 29.9472L40.5565 41.373C40.2889 42.0692 40.6361 42.8511 41.3329 43.1186C42.0291 43.3863 42.811 43.0391 43.0785 42.3422L49.456 25.7813V25.7819C51.8406 22.5521 52.9395 18.5515 52.5381 14.5568C52.1373 10.562 50.2645 6.85974 47.2848 4.16897C44.3052 1.47866 40.4311 -0.00707312 36.4165 2.53188e-05L36.4167 0.000102433ZM36.4167 29.7055C32.8356 29.7055 29.4015 28.2829 26.8692 25.7506C24.3369 23.2183 22.9142 19.7842 22.9142 16.2031C22.9142 12.6219 24.3368 9.1878 26.8692 6.65551C29.4015 4.12322 32.8356 2.7006 36.4167 2.7006C39.9979 2.7006 43.432 4.12319 45.9643 6.65551C48.4966 9.18783 49.9192 12.6219 49.9192 16.2031C49.915 19.783 48.4912 23.2152 45.9601 25.7465C43.429 28.2777 39.9967 29.7014 36.4167 29.7055Z" fill="black"/>
<path d="M48.569 40.5078H51.2695V43.2083H48.569V40.5078Z" fill="black"/>
<path d="M53.9699 40.5078H56.6704V43.2083H53.9699V40.5078Z" fill="black"/>
<path d="M59.3709 40.5078H64.7719V43.2083H59.3709V40.5078Z" fill="black"/>
</svg>
