<svg width="81" height="81" viewBox="0 0 81 81" fill="none" xmlns="http://www.w3.org/2000/svg">
<circle cx="39.5" cy="43.5" r="37.5" fill="#F9A828"/>
<path d="M75.9366 20.2507H59.0618C58.1306 20.2507 57.3759 21.0053 57.3759 21.9379V23.6257H50.6244V16.8748H69.1873C70.1186 16.8748 70.8751 16.1202 70.8751 15.1876V1.68779C70.8751 0.756527 70.1187 0 69.1873 0H1.68655C0.755293 0 0 0.75645 0 1.68779V79.3141C0 80.2459 0.755246 81 1.68655 81H69.1873C70.1186 81 70.8751 80.2453 70.8751 79.3141V69.189C70.8751 68.256 70.1187 67.5008 69.1873 67.5008L47.0692 67.5014C49.2614 65.3556 50.6243 62.3672 50.6243 59.064V55.6898C50.6243 54.7567 49.869 54.002 48.9377 54.002H28.6867C27.7554 54.002 26.9989 54.7566 26.9989 55.6898V59.064C26.9989 62.367 28.3636 65.3554 30.5558 67.5014H20.2493V16.8754H26.9989V28.6889C26.9989 29.6201 27.7554 30.376 28.6867 30.376H32.0627V32.0638C32.0627 32.9957 32.8174 33.751 33.7505 33.751C34.6818 33.751 35.4371 32.9963 35.4371 32.0638V30.376H40.5001V32.0638C40.5001 32.9957 41.2548 33.751 42.1861 33.751C43.1192 33.751 43.8739 32.9963 43.8739 32.0638V30.376H48.9376C49.8694 30.376 50.6241 29.6202 50.6241 28.6889V27.0011H57.3756V28.6889C57.3756 29.6201 58.1302 30.376 59.0615 30.376H75.9363C78.7289 30.376 81 28.1054 81 25.3134C81.0006 22.5227 78.7294 20.2508 75.9369 20.2508L75.9366 20.2507ZM30.375 59.063V57.3753H47.2498V59.063C47.2498 63.7163 43.4633 67.5005 38.8117 67.5005C34.1591 67.5011 30.3743 63.7164 30.3743 59.063H30.375ZM18.5615 13.5014C17.6303 13.5014 16.8756 14.2566 16.8756 15.1886V69.1892C16.8756 70.1204 17.6302 70.877 18.5615 70.877H67.4994V77.6266H3.37481V37.1261H6.75085C7.68211 37.1261 8.43864 36.3703 8.43864 35.4383C8.43864 34.5065 7.68219 33.7505 6.75085 33.7505H3.37481V30.3757H6.75085C7.68211 30.3757 8.43864 29.6199 8.43864 28.6886C8.43864 27.7555 7.68219 27.0008 6.75085 27.0008L3.37481 27.0002V23.6254H6.75085C7.68211 23.6254 8.43864 22.8695 8.43864 21.9376C8.43864 21.0056 7.68219 20.2504 6.75085 20.2504H3.37481V16.8744H6.75085C7.68211 16.8744 8.43864 16.1197 8.43864 15.1872C8.43864 14.2553 7.68219 13.5 6.75085 13.5L3.37481 13.5006V10.1246H6.75085C7.68211 10.1246 8.43864 9.36993 8.43864 8.43679C8.43864 7.50552 7.68219 6.74961 6.75085 6.74961L3.37481 6.75022V3.37479H67.4994V13.5004H18.5615V13.5014ZM47.2499 16.8756V20.2516H30.3751V16.8756H47.2499ZM47.2499 27.0006H30.3751V23.6258H47.2499V27.0006ZM75.9368 27.0006H60.7491V23.6258H75.9362C76.868 23.6258 77.6244 24.3829 77.6244 25.313C77.625 26.2442 76.8686 27.0008 75.9366 27.0008L75.9368 27.0006Z" fill="black"/>
<path d="M35.4362 37.1253C35.4362 36.1922 34.6809 35.4375 33.7496 35.4375C32.8165 35.4375 32.0618 36.1921 32.0618 37.1253V38.8131C32.0618 39.7443 32.8165 40.499 33.7496 40.499C34.6809 40.499 35.4362 39.7438 35.4362 38.8131V37.1253Z" fill="black"/>
<path d="M33.7512 42.1885C32.8181 42.1885 32.0634 42.9455 32.0634 43.8767V45.5645C32.0634 46.4964 32.818 47.2528 33.7512 47.2528C34.6824 47.2528 35.4377 46.4963 35.4377 45.5645V43.8767C35.4371 42.9455 34.6825 42.1885 33.7512 42.1885Z" fill="black"/>
<path d="M43.8751 37.1253C43.8751 36.1922 43.1205 35.4375 42.1873 35.4375C41.2561 35.4375 40.5014 36.1921 40.5014 37.1253V38.8131C40.5014 39.7443 41.256 40.499 42.1873 40.499C43.1204 40.499 43.8751 39.7438 43.8751 38.8131V37.1253Z" fill="black"/>
<path d="M42.187 42.1885C41.2558 42.1885 40.5011 42.9455 40.5011 43.8767V45.5645C40.5011 46.4964 41.2557 47.2528 42.187 47.2528C43.1201 47.2528 43.8748 46.4963 43.8748 45.5645V43.8767C43.8754 42.9455 43.1208 42.1885 42.187 42.1885Z" fill="black"/>
<path d="M48.9379 10.125C49.8697 10.125 50.6244 9.37032 50.6244 8.43717C50.6244 7.50591 49.8692 6.75 48.9379 6.75C48.0048 6.75 47.2501 7.50585 47.2501 8.43717C47.2501 9.37024 48.0053 10.125 48.9379 10.125Z" fill="black"/>
<path d="M55.6887 10.125C56.62 10.125 57.377 9.37032 57.377 8.43717C57.377 7.50591 56.6199 6.75 55.6887 6.75C54.7557 6.75 54.0009 7.50585 54.0009 8.43717C54.0009 9.37024 54.7556 10.125 55.6887 10.125Z" fill="black"/>
<path d="M62.438 10.125C63.3693 10.125 64.1258 9.37032 64.1258 8.43717C64.1258 7.50591 63.3694 6.75 62.438 6.75C61.5068 6.75 60.7498 7.50585 60.7498 8.43717C60.7498 9.37024 61.5068 10.125 62.438 10.125Z" fill="black"/>
</svg>
