<svg width="28" height="42" viewBox="0 0 28 42" fill="none" xmlns="http://www.w3.org/2000/svg">
<path d="M13.0686 41.9999H15.518C22.3951 41.9999 28.0001 36.3947 28.0001 29.5179V13.3619C28.0001 6.48485 22.3948 0.879883 15.518 0.879883H13.0686C6.19159 0.879883 0.586624 6.4851 0.586624 13.3619V29.5179C0.586294 36.3949 6.19151 41.9999 13.0686 41.9999ZM15.518 3.23498C21.0759 3.23498 25.645 7.75694 25.645 13.3619V29.5179C25.645 35.1231 21.0761 39.6448 15.518 39.6448L13.0686 39.6451C7.46343 39.6451 2.94172 35.0762 2.94172 29.5182L2.94139 13.3622C2.94139 7.75702 7.51029 3.23531 13.0683 3.23531L15.518 3.23498Z" fill="white"/>
<path d="M8.45265 22.6881C8.8765 22.217 9.6302 22.217 10.1014 22.6881L13.1159 25.9852L13.1156 14.0213C13.1156 13.3619 13.6337 12.8438 14.2931 12.8438C14.9526 12.8438 15.4707 13.3619 15.4707 14.0213V26.0323L18.4852 22.7352C18.9091 22.2641 19.6628 22.2641 20.134 22.7352C20.5108 23.1591 20.5108 23.8185 20.134 24.2427L15.1412 29.7536C14.7174 30.2248 13.9637 30.2248 13.4925 29.7536L8.45241 24.2427C8.07588 23.7715 8.0758 23.112 8.45265 22.6881Z" fill="white"/>
</svg>
