<svg width="36" height="36" viewBox="0 0 40 40" fill="none" xmlns="http://www.w3.org/2000/svg">
<path d="M20 0C8.95277 0 0 8.95277 0 20C0 31.0472 8.95277 40 20 40C31.0472 40 40 31.0472 40 20C40 8.95277 31.0472 0 20 0ZM22.9979 29.692C14.3326 25.4211 12.0738 17.7413 11.7453 14.9487C11.4167 12.1562 16.2629 9.69199 16.2629 9.69199L19.302 14.8665C19.302 14.8665 16.0165 16.6322 16.4682 17.577C18.8912 22.6695 22.0125 24.5584 22.0125 24.5584C23.0392 24.928 25.298 22.4229 25.298 22.4229L29.6511 26.5296C29.6918 26.5296 26.0368 31.1704 22.9977 29.6919L22.9979 29.692Z" fill="white"/>
</svg>
