<svg width="92" height="82" viewBox="0 0 92 82" fill="none" xmlns="http://www.w3.org/2000/svg">
<circle cx="46.5" cy="44.5" r="37.5" fill="#F9A828"/>
<path d="M24.6839 0.0154015C23.8515 0.114737 23.1605 0.703491 22.9299 1.50978L17.4411 20.8012H2.0782C2.01367 20.7983 1.94841 20.7983 1.88388 20.8012C0.812223 20.902 -0.00498343 21.8039 0.000213901 22.8792V36.3902C-0.00776178 36.9463 0.207588 37.4829 0.598409 37.8788C0.98923 38.2754 1.52216 38.498 2.07829 38.498C2.63515 38.498 3.16808 38.2754 3.5589 37.8788C3.94972 37.4829 4.16506 36.9463 4.1571 36.3902V24.9579H66.5177V66.2359L53.5258 51.6214H53.5265C53.0567 51.087 52.3454 50.8296 51.6421 50.9398C51.4283 50.9717 51.2194 51.0377 51.0251 51.1341L30.336 61.4946L22.3137 52.661C21.8439 52.1259 21.1333 51.8685 20.4301 51.9787C20.227 52.0142 20.0298 52.0802 19.8457 52.1738L4.1579 60.0336V44.7041C4.16587 44.1472 3.95052 43.6114 3.5597 43.2148C3.16888 42.8189 2.63595 42.5956 2.07909 42.5956C1.52296 42.5956 0.990028 42.8189 0.599207 43.2148C0.208387 43.6114 -0.00695044 44.1472 0.00101262 44.7041V76.922V76.9212C0.00101262 78.069 0.931281 79 2.07902 79H68.5975C69.7453 79 70.6762 78.069 70.6762 76.9212V73.7383L74.2486 74.7447V74.7454C74.783 74.9056 75.3587 74.844 75.8474 74.5757C76.3361 74.3067 76.6965 73.8536 76.8473 73.3163L91.3982 20.3127C91.5468 19.7784 91.4765 19.207 91.2017 18.7255C90.9276 18.2434 90.4715 17.891 89.9364 17.7467L25.4969 0.0794842C25.233 0.0040765 24.9575 -0.0176767 24.6848 0.0142275L24.6839 0.0154015ZM26.4052 4.62692L86.8167 21.1905L73.3703 70.166L70.6746 69.4192V22.879L70.6753 22.8797C70.6753 21.7319 69.7443 20.8009 68.5965 20.8009H21.7612L26.4059 4.62739L26.4052 4.62692ZM33.2586 33.2716C28.6914 33.2716 24.9442 37.0189 24.9442 41.5861C24.9442 46.1532 28.6914 49.9005 33.2586 49.9005C37.8258 49.9005 41.573 46.1532 41.573 41.5861C41.573 37.0189 37.8258 33.2716 33.2586 33.2716ZM33.2586 37.4286C35.5796 37.4286 37.4161 39.2652 37.4161 41.5855C37.4161 43.9059 35.5795 45.7425 33.2586 45.7425C30.9377 45.7425 29.1011 43.9059 29.1011 41.5855C29.1011 39.2652 30.9377 37.4286 33.2586 37.4286ZM51.4797 55.5838L66.5178 72.4722V74.8431H42.5154L33.2592 64.6775L51.4803 55.5836L51.4797 55.5838ZM20.2994 56.6228L36.8637 74.8425H4.15762V64.7095L20.2994 56.6228Z" fill="black"/>
</svg>
