<svg width="22" height="23" viewBox="0 0 22 23" fill="none" xmlns="http://www.w3.org/2000/svg">
<path fill-rule="evenodd" clip-rule="evenodd" d="M18.2019 7.58019C19.2732 7.57972 20.2943 7.12585 21.0125 6.33091C21.7305 5.53597 22.0789 4.47433 21.971 3.40842C21.863 2.34263 21.3092 1.37215 20.4462 0.737264C19.5833 0.102418 18.492 -0.137678 17.4424 0.0765745C16.3927 0.290677 15.4827 0.93902 14.9375 1.86119C14.3924 2.78351 14.2629 3.89336 14.5811 4.91618L6.85651 8.80619V8.80635C6.24731 7.97068 5.3234 7.42014 4.29867 7.28196C3.27378 7.14392 2.23705 7.43029 1.42848 8.07482C0.61991 8.71937 0.109615 9.66612 0.0156539 10.6959C-0.0781652 11.7257 0.252577 12.7491 0.931328 13.5293C1.61007 14.3094 2.57792 14.7784 3.61072 14.8279C4.64368 14.8773 5.6519 14.5029 6.40217 13.7913L14.5524 17.2686C14.2051 18.5035 14.5055 19.8303 15.3506 20.7954C16.1958 21.7605 17.4712 22.2332 18.7413 22.0521C20.0111 21.871 21.1037 21.0604 21.6452 19.8975C22.1869 18.7346 22.1041 17.3767 21.4256 16.2881C20.7471 15.1996 19.5644 14.5275 18.2818 14.5016C16.9993 14.4758 15.7904 15.0997 15.0685 16.1601L7.16136 12.7853C7.62524 11.8936 7.71506 10.8538 7.41096 9.89558L15.1311 6.00813C15.8425 6.99545 16.9851 7.58088 18.2021 7.58116L18.2019 7.58019Z" fill="white"/>
</svg>
