<svg width="76" height="81" viewBox="0 0 76 81" fill="none" xmlns="http://www.w3.org/2000/svg">
<circle cx="37.5" cy="42.5" r="37.5" fill="#F9A828"/>
<path d="M73.0485 51.4192L65.8022 53.4411L58.0504 48.9754L66.2235 46.7849C67.4872 46.4481 68.1613 45.1838 67.8246 43.9202C67.4878 42.6566 66.2235 41.9824 64.96 42.3191L52.3211 45.7739L47.5181 42.9934V37.2641L52.3211 34.4835L64.96 37.9383C65.1286 38.0223 65.3814 38.0223 65.55 38.0223C66.561 38.0223 67.4878 37.3482 67.8252 36.3373C68.162 35.0737 67.4038 33.8094 66.2241 33.4726L58.051 31.2821L65.8028 26.8164L73.0491 28.7542C73.2178 28.8382 73.4705 28.8382 73.6392 28.8382C74.6501 28.8382 75.577 28.1641 75.9143 27.1532C76.2511 25.8895 75.4929 24.6253 74.3132 24.2885L68.33 22.5182L69.931 16.5355C70.2678 15.2719 69.5096 14.0076 68.246 13.6709C66.9824 13.3341 65.7181 14.0923 65.3814 15.3559L63.4436 22.6021L55.6917 27.0679L57.8823 18.8948C58.2191 17.6311 57.4609 16.3668 56.1973 16.0301C54.9337 15.6933 53.6694 16.4515 53.3327 17.7151L49.9626 30.354L45.1595 33.1345L40.1884 30.2699V24.7086L49.4572 15.4398C50.3841 14.513 50.3841 13.0806 49.4572 12.1538C48.5303 11.2269 47.0979 11.2269 46.1711 12.1538L40.1884 18.1364L40.1873 9.28971L45.4957 3.98125C46.4226 3.05437 46.4226 1.622 45.4957 0.695158C44.5688 -0.231719 43.1365 -0.231719 42.2096 0.695158L37.9967 5.07677L33.6151 0.695158C32.6882 -0.231719 31.2558 -0.231719 30.329 0.695158C29.4021 1.62203 29.4021 3.0544 30.329 3.98125L35.6374 9.28971V18.221L29.6547 12.2383C28.7279 11.3114 27.2955 11.3114 26.3687 12.2383C25.4418 13.1652 25.4418 14.5976 26.3687 15.5244L35.6374 24.7932V30.3544L30.6663 33.2191L25.8633 30.4385L22.4932 17.7997C22.1564 16.5361 20.8921 15.8619 19.6286 16.1147C18.3649 16.4515 17.6908 17.7157 17.9435 18.9793L20.1341 27.1524L12.3823 22.6867L10.4445 15.4404C10.1077 14.1768 8.84343 13.5026 7.57984 13.7554C6.3162 14.0922 5.64204 15.3565 5.89482 16.6201L7.49589 22.6028L1.76539 24.1191C0.501744 24.4559 -0.172417 25.7202 0.164318 26.9838C0.417049 27.9947 1.34391 28.6688 2.43946 28.6688C2.60814 28.6688 2.86087 28.6688 3.02955 28.5847L10.2758 26.6469L18.0276 31.1127L9.85452 33.3032C8.59088 33.64 7.91671 34.9043 8.25345 36.1679C8.50618 37.1788 9.43304 37.8529 10.5286 37.8529C10.6973 37.8529 10.95 37.8529 11.1187 37.7689L23.7575 34.3141L28.5606 37.0946V42.8239L23.7575 45.6045L11.1187 42.1497C9.85504 41.8129 8.59077 42.5711 8.25404 43.7508C7.91726 45.0144 8.67545 46.2787 9.8551 46.6154L18.0282 48.806L10.1912 53.441L2.94498 51.5032C1.68134 51.1664 0.417063 51.9246 0.0803289 53.1043C-0.256451 54.3679 0.501743 55.6322 1.6814 55.9689L7.66407 57.57L6.06301 63.5527C5.72623 64.8163 6.48442 66.0806 7.74803 66.4173C7.91671 66.5014 8.16945 66.5014 8.33813 66.5014C9.34906 66.5014 10.2759 65.8272 10.6133 64.8163L12.5511 57.5701L20.3029 53.1044L18.1123 61.2775C17.7755 62.5411 18.5337 63.8054 19.7973 64.1421C19.966 64.2262 20.2187 64.2262 20.3874 64.2262C21.3983 64.2262 22.3252 63.552 22.6626 62.5411L26.0326 49.9023L30.8357 47.1218L35.8068 49.9864V55.5476L26.538 64.8164C25.6111 65.7433 25.6111 67.1757 26.538 68.1025C27.4649 69.0294 28.8973 69.0294 29.8241 68.1025L35.8068 62.1198V71.0511L30.4983 76.3596C29.5715 77.2864 29.5715 78.7188 30.4983 79.6457C31.4252 80.5725 32.8576 80.5725 33.7844 79.6457L38.166 75.2641L42.5476 79.6457C42.9691 80.0671 43.5586 80.3198 44.1487 80.3198C44.7389 80.3198 45.3283 80.0671 45.8337 79.6457C46.7606 78.7188 46.7606 77.2864 45.8337 76.3596L40.5253 71.0511L40.5247 61.8671L46.5074 67.8497C46.9288 68.2711 47.5183 68.5239 48.1084 68.5239C48.6986 68.5239 49.288 68.2711 49.7935 67.8497C50.7203 66.9229 50.7203 65.4905 49.7935 64.5636L40.5247 55.2949V49.7336L45.4958 46.869L50.2989 49.6495L53.6689 62.2883C53.9216 63.2993 54.8485 63.9734 55.9441 63.9734C56.1127 63.9734 56.3655 63.9734 56.5342 63.8893C57.7978 63.5525 58.472 62.2883 58.2192 61.0247L56.0286 52.8516L63.7804 57.3173L65.7182 64.5636C65.9709 65.5745 66.8978 66.2486 67.9934 66.2486C68.162 66.2486 68.4148 66.2486 68.5835 66.1645C69.8471 65.8278 70.5212 64.5635 70.2685 63.2999L68.3301 57.57L74.3128 55.9689C75.5764 55.6321 76.2505 54.3678 75.9138 53.1043C75.5764 51.84 74.3121 51.0819 73.0486 51.4192H73.0485ZM37.9968 45.7734L33.0257 42.9088V37.1795L37.9968 34.3148L42.9679 37.1795V42.9088L37.9968 45.7734Z" fill="black"/>
</svg>
